<?xml version="1.0" encoding="iso-8859-1"?>
<!DOCTYPE svg PUBLIC "-//W3C//DTD SVG 1.1 Basic//EN" "http://www.w3.org/Graphics/SVG/1.1/DTD/svg11-basic.dtd">
<svg version="1.1" baseProfile="basic"
   xmlns="http://www.w3.org/2000/svg" xmlns:xlink="http://www.w3.org/1999/xlink" x="0px" y="0px" width="512px" height="512px"
   viewBox="0 0 512 512" xml:space="preserve">
  <path transform="matrix(0.512,0,0,0.512,0,192)" stroke="none" style="fill:#000000" d="M 252 125 C 252 194 196 250 126 250 C 56 250 0 194 0 125 C 0 55 56 0 126 0 C 196 0 252 55 252 125 M 1000 125 C 1000 194 943 250 873 250 C 803 250 747 194 747 125 C 747 55 803 0 873 0 C 943 0 1000 55 1000 125 M 626 125 C 626 194 569 250 500 250 C 430 250 373 194 373 125 C 373 55 430 0 500 0 C 569 0 626 55 626 125"/>
</svg>